<mxfile host="app.diagrams.net" modified="2024-05-21T12:29:57.996Z" agent="Mozilla/5.0 (X11; Linux x86_64) AppleWebKit/537.36 (KHTML, like Gecko) Chrome/118.0.0.0 Safari/537.36" etag="nyfL1DNw4gvEbuUR4RNo" version="24.4.4" type="device">
  <diagram name="PÃ¡gina-1" id="yNqteSQcv69xAR6WtAcx">
    <mxGraphModel dx="1434" dy="758" grid="1" gridSize="10" guides="1" tooltips="1" connect="1" arrows="1" fold="1" page="1" pageScale="1" pageWidth="827" pageHeight="1169" math="0" shadow="0">
      <root>
        <mxCell id="0" />
        <mxCell id="1" parent="0" />
        <mxCell id="Hi0HAL7Cb5OqdDmWc0-A-1" value="" style="ellipse;whiteSpace=wrap;html=1;aspect=fixed;fillColor=#0D0D0D;" parent="1" vertex="1">
          <mxGeometry x="399" y="80" width="30" height="30" as="geometry" />
        </mxCell>
        <mxCell id="Hi0HAL7Cb5OqdDmWc0-A-3" value="Accede a registrarse" style="rounded=1;whiteSpace=wrap;html=1;" parent="1" vertex="1">
          <mxGeometry x="354" y="170" width="120" height="60" as="geometry" />
        </mxCell>
        <mxCell id="Hi0HAL7Cb5OqdDmWc0-A-4" value="Rellena credenciales" style="rounded=1;whiteSpace=wrap;html=1;" parent="1" vertex="1">
          <mxGeometry x="354" y="280" width="120" height="60" as="geometry" />
        </mxCell>
        <mxCell id="Hi0HAL7Cb5OqdDmWc0-A-5" value="Se autentica" style="rounded=1;whiteSpace=wrap;html=1;" parent="1" vertex="1">
          <mxGeometry x="354" y="400" width="120" height="60" as="geometry" />
        </mxCell>
        <mxCell id="Hi0HAL7Cb5OqdDmWc0-A-6" value="Se crea el usuario" style="rounded=1;whiteSpace=wrap;html=1;" parent="1" vertex="1">
          <mxGeometry x="354" y="500" width="120" height="60" as="geometry" />
        </mxCell>
        <mxCell id="Hi0HAL7Cb5OqdDmWc0-A-7" value="Fin" style="rounded=1;whiteSpace=wrap;html=1;" parent="1" vertex="1">
          <mxGeometry x="354" y="610" width="120" height="60" as="geometry" />
        </mxCell>
        <mxCell id="Hi0HAL7Cb5OqdDmWc0-A-8" value="" style="endArrow=classic;html=1;rounded=0;exitX=0.5;exitY=1;exitDx=0;exitDy=0;entryX=0.5;entryY=0;entryDx=0;entryDy=0;" parent="1" source="Hi0HAL7Cb5OqdDmWc0-A-1" target="Hi0HAL7Cb5OqdDmWc0-A-3" edge="1">
          <mxGeometry width="50" height="50" relative="1" as="geometry">
            <mxPoint x="390" y="420" as="sourcePoint" />
            <mxPoint x="440" y="370" as="targetPoint" />
          </mxGeometry>
        </mxCell>
        <mxCell id="Hi0HAL7Cb5OqdDmWc0-A-9" value="" style="endArrow=classic;html=1;rounded=0;exitX=0.5;exitY=1;exitDx=0;exitDy=0;entryX=0.5;entryY=0;entryDx=0;entryDy=0;" parent="1" source="Hi0HAL7Cb5OqdDmWc0-A-3" target="Hi0HAL7Cb5OqdDmWc0-A-4" edge="1">
          <mxGeometry width="50" height="50" relative="1" as="geometry">
            <mxPoint x="424" y="120" as="sourcePoint" />
            <mxPoint x="424" y="180" as="targetPoint" />
          </mxGeometry>
        </mxCell>
        <mxCell id="Hi0HAL7Cb5OqdDmWc0-A-10" value="" style="endArrow=classic;html=1;rounded=0;exitX=0.5;exitY=1;exitDx=0;exitDy=0;entryX=0.5;entryY=0;entryDx=0;entryDy=0;" parent="1" source="Hi0HAL7Cb5OqdDmWc0-A-4" target="Hi0HAL7Cb5OqdDmWc0-A-5" edge="1">
          <mxGeometry width="50" height="50" relative="1" as="geometry">
            <mxPoint x="434" y="130" as="sourcePoint" />
            <mxPoint x="434" y="190" as="targetPoint" />
          </mxGeometry>
        </mxCell>
        <mxCell id="Hi0HAL7Cb5OqdDmWc0-A-11" value="" style="endArrow=classic;html=1;rounded=0;exitX=0.5;exitY=1;exitDx=0;exitDy=0;entryX=0.5;entryY=0;entryDx=0;entryDy=0;" parent="1" source="Hi0HAL7Cb5OqdDmWc0-A-5" target="Hi0HAL7Cb5OqdDmWc0-A-6" edge="1">
          <mxGeometry width="50" height="50" relative="1" as="geometry">
            <mxPoint x="444" y="140" as="sourcePoint" />
            <mxPoint x="444" y="200" as="targetPoint" />
          </mxGeometry>
        </mxCell>
        <mxCell id="Hi0HAL7Cb5OqdDmWc0-A-12" value="" style="endArrow=classic;html=1;rounded=0;exitX=0.5;exitY=1;exitDx=0;exitDy=0;entryX=0.5;entryY=0;entryDx=0;entryDy=0;" parent="1" source="Hi0HAL7Cb5OqdDmWc0-A-6" target="Hi0HAL7Cb5OqdDmWc0-A-7" edge="1">
          <mxGeometry width="50" height="50" relative="1" as="geometry">
            <mxPoint x="454" y="150" as="sourcePoint" />
            <mxPoint x="454" y="210" as="targetPoint" />
          </mxGeometry>
        </mxCell>
        <mxCell id="Hi0HAL7Cb5OqdDmWc0-A-13" value="Funciona" style="text;html=1;align=center;verticalAlign=middle;whiteSpace=wrap;rounded=0;" parent="1" vertex="1">
          <mxGeometry x="414" y="460" width="60" height="30" as="geometry" />
        </mxCell>
        <mxCell id="Hi0HAL7Cb5OqdDmWc0-A-14" value="Salta un error" style="rounded=1;whiteSpace=wrap;html=1;" parent="1" vertex="1">
          <mxGeometry x="140" y="500" width="120" height="60" as="geometry" />
        </mxCell>
        <mxCell id="Hi0HAL7Cb5OqdDmWc0-A-15" value="" style="endArrow=classic;html=1;rounded=0;exitX=0;exitY=0.5;exitDx=0;exitDy=0;entryX=0.5;entryY=0;entryDx=0;entryDy=0;" parent="1" source="Hi0HAL7Cb5OqdDmWc0-A-5" target="Hi0HAL7Cb5OqdDmWc0-A-14" edge="1">
          <mxGeometry width="50" height="50" relative="1" as="geometry">
            <mxPoint x="390" y="420" as="sourcePoint" />
            <mxPoint x="440" y="370" as="targetPoint" />
            <Array as="points">
              <mxPoint x="200" y="430" />
            </Array>
          </mxGeometry>
        </mxCell>
        <mxCell id="Hi0HAL7Cb5OqdDmWc0-A-16" value="No f&lt;span style=&quot;background-color: initial;&quot;&gt;unciona&lt;/span&gt;" style="text;html=1;align=center;verticalAlign=middle;whiteSpace=wrap;rounded=0;" parent="1" vertex="1">
          <mxGeometry x="220" y="400" width="80" height="30" as="geometry" />
        </mxCell>
        <mxCell id="Hi0HAL7Cb5OqdDmWc0-A-17" value="" style="endArrow=classic;html=1;rounded=0;exitX=0.5;exitY=1;exitDx=0;exitDy=0;entryX=0;entryY=0.5;entryDx=0;entryDy=0;" parent="1" source="Hi0HAL7Cb5OqdDmWc0-A-14" target="Hi0HAL7Cb5OqdDmWc0-A-7" edge="1">
          <mxGeometry width="50" height="50" relative="1" as="geometry">
            <mxPoint x="390" y="420" as="sourcePoint" />
            <mxPoint x="440" y="370" as="targetPoint" />
            <Array as="points">
              <mxPoint x="200" y="640" />
            </Array>
          </mxGeometry>
        </mxCell>
      </root>
    </mxGraphModel>
  </diagram>
</mxfile>
